# xmcd
#
# Track frame offsets:
#	150
#	33618
#	57295
#	84076
#	115477
#	141650
#	184410
#
# Disc length: 2668 seconds
#
# Revision: 0
# Processed by: cddbd v1.5.2PL0 Copyright (c) Steve Scherf et al.
# Submitted via: dBpowerAMP V4.0
#
DISCID=650a6a07
DTITLE=Erik Harstad and The Buzz Brothers - Live At Ricks
DYEAR=2004
DGENRE=Blues
TTITLE0=Let Me Love You
TTITLE1=Drinking And Thinking
TTITLE2=That's It
TTITLE3=Mutcika
TTITLE4=It's My Soul
TTITLE5=Play It Cool
TTITLE6=Pocket Rocket
EXTD=
EXTT0=
EXTT1=
EXTT2=
EXTT3=
EXTT4=
EXTT5=
EXTT6=
PLAYORDER=
